<?xml version="1.0" standalone="no"?>
<svg xmlns="http://www.w3.org/2000/svg" viewBox="0 0 171.26400000000004 23.76" width="171.26400000000004" height="23.76"><path fill="#16e0bd" fill-rule="nonzero" d="M9.05 12.77L9.05 12.77L9.05 8.95Q7.63 7.56 5.64 7.56L5.64 7.56Q4.13 7.56 2.95 8.96Q1.78 10.37 1.78 12.28Q1.78 14.18 2.62 15.58L2.62 15.58Q3.46 16.92 4.90 16.92L4.90 16.92Q7.42 16.92 9.05 12.77ZM10.06 0L10.06 0Q11.23 0 11.23 1.94L11.23 1.94Q11.23 2.69 11.14 3.67L11.14 3.67L10.85 6.82Q10.58 9.74 10.54 10.34L10.54 10.34Q10.54 13.49 10.76 15.04Q10.99 16.58 11.59 16.70L11.59 16.70Q12.22 16.70 12.22 17.06L12.22 17.06Q12.22 17.59 11.87 18.04Q11.52 18.48 10.87 18.48L10.87 18.48Q9.53 18.48 9.22 15.26L9.22 15.26Q7.44 18.48 4.78 18.48L4.78 18.48Q3.19 18.48 2.09 17.47L2.09 17.47Q0 15.62 0 12.50L0 12.50Q0 9.89 1.58 7.94Q3.17 6.00 5.64 6.00L5.64 6.00Q7.44 6.00 9.05 7.18L9.05 7.18Q9.10 2.71 9.10 1.73Q9.10 0.74 9.32 0.37Q9.55 0 10.06 0ZM24.19 12.43L24.19 12.43Q24.19 14.18 24.44 15.35Q24.70 16.51 25.08 16.66L25.08 16.66Q25.22 16.73 25.43 16.75Q25.63 16.78 25.72 16.82Q25.80 16.87 25.80 17.02L25.80 17.02Q25.80 17.69 25.44 18.08Q25.08 18.48 24.40 18.48Q23.71 18.48 23.33 17.60Q22.94 16.73 22.94 15.31L22.94 15.31Q22.30 16.70 21.14 17.59Q19.99 18.48 18.54 18.48Q17.09 18.48 16.06 17.52L16.06 17.52Q14.14 15.74 14.14 12.50L14.14 12.50Q14.14 9.89 15.65 7.94Q17.16 6.00 19.54 6.00L19.54 6.00Q21.34 6.00 22.66 7.22L22.66 7.22Q22.66 6.00 23.57 6.00L23.57 6.00Q24.67 6.00 24.67 7.64Q24.67 9.29 24.19 12.43ZM22.80 12.65L22.80 12.65L22.68 8.95Q21.26 7.56 19.68 7.56Q18.10 7.56 16.97 8.98Q15.84 10.39 15.84 12.40Q15.84 14.40 16.58 15.66Q17.33 16.92 18.65 16.92Q19.97 16.92 21.08 15.74Q22.20 14.57 22.80 12.65ZM38.59 10.68L38.59 10.68L38.47 14.45L38.47 15.48Q38.52 16.46 38.95 16.66L38.95 16.66Q39.12 16.70 39.34 16.74Q39.55 16.78 39.64 16.82Q39.72 16.87 39.72 17.02L39.72 17.02Q39.72 17.64 39.32 18.06Q38.93 18.48 38.40 18.48L38.40 18.48Q37.51 18.48 37.15 17.78Q36.79 17.09 36.79 15.65L36.79 15.65L36.89 11.23Q36.89 9.58 36.18 8.58Q35.47 7.58 34.25 7.58Q33.02 7.58 31.88 8.94Q30.74 10.30 30.26 12.05L30.26 12.05L30.34 17.26Q30.34 18.48 29.42 18.48L29.42 18.48Q28.32 18.48 28.32 16.84Q28.32 15.19 28.80 12.05L28.80 12.05Q28.80 11.04 28.60 9.22Q28.39 7.39 28.39 7.01Q28.39 6.62 28.66 6.31Q28.92 6.00 29.33 6.00Q29.74 6.00 30.00 6.31Q30.26 6.62 30.26 6.98Q30.26 7.34 30.25 8.06Q30.24 8.78 30.24 9.05L30.24 9.05Q31.99 6.00 34.56 6.00L34.56 6.00Q36.48 6.00 37.54 7.38Q38.59 8.76 38.59 10.68ZM43.39 0.84L43.39 0.84Q44.38 0.84 44.38 1.99L44.38 1.99Q44.38 2.52 44.03 2.99Q43.68 3.46 43.20 3.46L43.20 3.46Q42.19 3.46 42.19 2.23L42.19 2.23Q42.19 1.66 42.54 1.25Q42.89 0.84 43.39 0.84ZM44.18 7.20L44.18 7.20L44.06 12.24L44.18 17.28Q44.18 18.48 43.27 18.48Q42.36 18.48 42.36 17.28L42.36 17.28L42.48 12.24L42.36 7.20Q42.36 6.00 43.27 6.00Q44.18 6.00 44.18 7.20ZM53.57 7.44L53.57 7.44Q51.98 7.44 50.92 8.63Q49.85 9.82 49.51 11.40L49.51 11.40Q50.81 11.78 52.43 11.78Q54.05 11.78 55.03 11.23Q56.02 10.68 56.02 9.72Q56.02 8.76 55.36 8.10Q54.70 7.44 53.57 7.44ZM52.54 13.30L52.54 13.30Q51.29 13.30 49.49 12.94L49.49 12.94Q49.63 14.64 50.75 15.84Q51.86 17.04 53.35 17.04Q54.84 17.04 55.80 16.31Q56.76 15.58 57.06 15.58Q57.36 15.58 57.54 15.76Q57.72 15.94 57.72 16.20L57.72 16.20Q57.72 16.87 56.34 17.74Q54.96 18.60 53.35 18.60L53.35 18.60Q50.86 18.60 49.38 16.84Q47.90 15.07 47.81 12.62L47.81 12.62Q46.54 12.22 46.54 11.38L46.54 11.38Q46.54 10.82 46.94 10.66L46.94 10.66Q47.09 10.61 47.32 10.61Q47.54 10.61 47.95 10.82L47.95 10.82Q48.50 8.64 49.96 7.26Q51.41 5.88 53.36 5.88Q55.32 5.88 56.52 6.96Q57.72 8.04 57.72 9.78Q57.72 11.52 56.23 12.41Q54.74 13.30 52.54 13.30ZM62.50 1.20L62.50 1.20L62.38 9.24L62.50 17.28Q62.50 18.48 61.58 18.48Q60.67 18.48 60.67 17.28L60.67 17.28L60.79 9.24L60.67 1.20Q60.67 0 61.58 0Q62.50 0 62.50 1.20ZM67.87 1.20L67.87 1.20L67.75 9.24L67.87 17.28Q67.87 18.48 66.96 18.48Q66.05 18.48 66.05 17.28L66.05 17.28L66.17 9.24L66.05 1.20Q66.05 0 66.96 0Q67.87 0 67.87 1.20ZM77.26 7.44L77.26 7.44Q75.67 7.44 74.60 8.63Q73.54 9.82 73.20 11.40L73.20 11.40Q74.50 11.78 76.12 11.78Q77.74 11.78 78.72 11.23Q79.70 10.68 79.70 9.72Q79.70 8.76 79.04 8.10Q78.38 7.44 77.26 7.44ZM76.22 13.30L76.22 13.30Q74.98 13.30 73.18 12.94L73.18 12.94Q73.32 14.64 74.44 15.84Q75.55 17.04 77.04 17.04Q78.53 17.04 79.49 16.31Q80.45 15.58 80.75 15.58Q81.05 15.58 81.23 15.76Q81.41 15.94 81.41 16.20L81.41 16.20Q81.41 16.87 80.03 17.74Q78.65 18.60 77.04 18.60L77.04 18.60Q74.54 18.60 73.07 16.84Q71.59 15.07 71.50 12.62L71.50 12.62Q70.22 12.22 70.22 11.38L70.22 11.38Q70.22 10.82 70.63 10.66L70.63 10.66Q70.78 10.61 71.00 10.61Q71.23 10.61 71.64 10.82L71.64 10.82Q72.19 8.64 73.64 7.26Q75.10 5.88 77.05 5.88Q79.01 5.88 80.21 6.96Q81.41 8.04 81.41 9.78Q81.41 11.52 79.92 12.41Q78.43 13.30 76.22 13.30ZM92.38 12.62L92.38 12.62L92.38 8.95Q91.06 7.56 89.46 7.56Q87.86 7.56 86.68 8.98Q85.49 10.39 85.49 12.37Q85.49 14.35 86.24 15.64Q87 16.92 88.30 16.92Q89.59 16.92 90.68 15.71Q91.78 14.50 92.38 12.62ZM92.33 7.13L92.33 7.13Q92.38 6.00 93.24 6.00L93.24 6.00Q94.34 6.00 94.34 7.64Q94.34 9.29 93.86 12.43L93.86 12.43Q94.15 15.36 94.15 16.80L94.15 16.80Q94.15 19.92 92.66 21.84Q91.18 23.76 88.54 23.76L88.54 23.76Q87.10 23.76 85.75 23.15Q84.41 22.54 84.41 21.92Q84.41 21.31 84.96 21.31L84.96 21.31Q85.18 21.31 86.18 21.76Q87.19 22.20 88.54 22.20L88.54 22.20Q90.46 22.20 91.56 20.77Q92.66 19.34 92.66 17.04L92.66 17.04Q92.66 16.20 92.54 15.31L92.54 15.31Q91.99 16.61 90.82 17.54Q89.64 18.48 88.37 18.48L88.37 18.48Q86.06 18.48 84.79 16.49L84.79 16.49Q83.71 14.69 83.71 12.29Q83.71 9.89 85.32 7.94Q86.93 6.00 89.33 6.00L89.33 6.00Q90.98 6.00 92.33 7.13ZM98.78 12.26Q98.78 14.26 99.89 15.65Q100.99 17.04 102.66 17.04Q104.33 17.04 105.49 15.64Q106.66 14.23 106.66 12.24Q106.66 10.25 105.54 8.84Q104.42 7.44 102.78 7.44Q101.14 7.44 99.94 8.86L99.94 8.86Q98.78 10.27 98.78 12.26ZM98.66 16.76Q97.08 14.93 97.08 12.26Q97.08 9.60 98.69 7.74Q100.30 5.88 102.74 5.88Q105.19 5.88 106.78 7.72Q108.36 9.55 108.36 12.23Q108.36 14.90 106.74 16.75Q105.12 18.60 102.68 18.60Q100.25 18.60 98.66 16.76ZM113.09 7.97L113.09 7.97L112.90 13.25Q112.90 14.90 113.60 15.91Q114.31 16.92 115.54 16.92Q116.76 16.92 117.91 15.55L117.91 15.55Q119.04 14.16 119.52 12.43L119.52 12.43L119.45 7.22Q119.45 6.00 120.36 6.00L120.36 6.00Q121.46 6.00 121.46 7.64Q121.46 9.29 120.98 12.43L120.98 12.43Q120.98 14.18 121.24 15.35Q121.49 16.51 121.87 16.66L121.87 16.66Q122.02 16.73 122.22 16.75Q122.42 16.78 122.51 16.82Q122.59 16.87 122.59 17.02L122.59 17.02Q122.59 17.66 122.20 18.07Q121.80 18.48 121.20 18.48L121.20 18.48Q119.69 18.48 119.69 15.41L119.69 15.41Q117.91 18.48 115.22 18.48L115.22 18.48Q113.30 18.48 112.25 17.06L112.25 17.06Q111.19 15.60 111.19 13.56L111.19 13.56L111.34 9.94Q111.34 9.19 111.14 8.15Q110.95 7.10 110.95 6.84Q110.95 6.58 111.25 6.29Q111.55 6.00 111.98 6.00L111.98 6.00Q113.09 6.00 113.09 7.97ZM142.54 10.68L142.54 10.68L142.42 14.45L142.42 15.48Q142.46 16.46 142.90 16.66L142.90 16.66Q143.06 16.70 143.28 16.74Q143.50 16.78 143.58 16.82Q143.66 16.87 143.66 17.02L143.66 17.02Q143.66 17.64 143.27 18.06Q142.87 18.48 142.34 18.48L142.34 18.48Q141.46 18.48 141.10 17.78Q140.74 17.09 140.74 15.65L140.74 15.65L140.83 11.23Q140.83 9.58 140.18 8.58Q139.54 7.58 138.41 7.58Q137.28 7.58 136.20 8.95Q135.12 10.32 134.69 12.05L134.69 12.05L134.76 17.26Q134.76 18.48 133.85 18.48L133.85 18.48Q132.74 18.48 132.74 16.84Q132.74 15.19 133.22 12.05L133.22 12.05Q133.22 7.58 130.78 7.58L130.78 7.58Q129.65 7.58 128.57 8.95Q127.49 10.32 127.06 12.05L127.06 12.05L127.13 17.26Q127.13 18.48 126.22 18.48L126.22 18.48Q125.11 18.48 125.11 16.84Q125.11 15.19 125.59 12.05L125.59 12.05Q125.59 11.04 125.39 9.22Q125.18 7.39 125.18 7.01Q125.18 6.62 125.45 6.31Q125.71 6.00 126.12 6.00Q126.53 6.00 126.79 6.31Q127.06 6.62 127.06 6.98Q127.06 7.34 127.04 8.06Q127.03 8.78 127.03 9.05L127.03 9.05Q128.64 6.00 131.11 6.00L131.11 6.00Q132.50 6.00 133.40 6.82Q134.30 7.63 134.66 9.05L134.66 9.05Q136.27 6.00 138.74 6.00L138.74 6.00Q140.57 6.00 141.53 7.37L141.53 7.37Q142.54 8.74 142.54 10.68ZM155.74 12.43L155.74 12.43Q155.74 14.18 155.99 15.35Q156.24 16.51 156.62 16.66L156.62 16.66Q156.77 16.73 156.97 16.75Q157.18 16.78 157.26 16.82Q157.34 16.87 157.34 17.02L157.34 17.02Q157.34 17.69 156.98 18.08Q156.62 18.48 155.94 18.48Q155.26 18.48 154.87 17.60Q154.49 16.73 154.49 15.31L154.49 15.31Q153.84 16.70 152.69 17.59Q151.54 18.48 150.08 18.48Q148.63 18.48 147.60 17.52L147.60 17.52Q145.68 15.74 145.68 12.50L145.68 12.50Q145.68 9.89 147.19 7.94Q148.70 6.00 151.08 6.00L151.08 6.00Q152.88 6.00 154.20 7.22L154.20 7.22Q154.20 6.00 155.11 6.00L155.11 6.00Q156.22 6.00 156.22 7.64Q156.22 9.29 155.74 12.43ZM154.34 12.65L154.34 12.65L154.22 8.95Q152.81 7.56 151.22 7.56Q149.64 7.56 148.51 8.98Q147.38 10.39 147.38 12.40Q147.38 14.40 148.13 15.66Q148.87 16.92 150.19 16.92Q151.51 16.92 152.63 15.74Q153.74 14.57 154.34 12.65ZM170.14 10.68L170.14 10.68L170.02 14.45L170.02 15.48Q170.06 16.46 170.50 16.66L170.50 16.66Q170.66 16.70 170.88 16.74Q171.10 16.78 171.18 16.82Q171.26 16.87 171.26 17.02L171.26 17.02Q171.26 17.64 170.87 18.06Q170.47 18.48 169.94 18.48L169.94 18.48Q169.06 18.48 168.70 17.78Q168.34 17.09 168.34 15.65L168.34 15.65L168.43 11.23Q168.43 9.58 167.72 8.58Q167.02 7.58 165.79 7.58Q164.57 7.58 163.43 8.94Q162.29 10.30 161.81 12.05L161.81 12.05L161.88 17.26Q161.88 18.48 160.97 18.48L160.97 18.48Q159.86 18.48 159.86 16.84Q159.86 15.19 160.34 12.05L160.34 12.05Q160.34 11.04 160.14 9.22Q159.94 7.39 159.94 7.01Q159.94 6.62 160.20 6.31Q160.46 6.00 160.87 6.00Q161.28 6.00 161.54 6.31Q161.81 6.62 161.81 6.98Q161.81 7.34 161.80 8.06Q161.78 8.78 161.78 9.05L161.78 9.05Q163.54 6.00 166.10 6.00L166.10 6.00Q168.02 6.00 169.08 7.38Q170.14 8.76 170.14 10.68Z"></path></svg>